<svg xmlns="http://www.w3.org/2000/svg" fill="none" viewBox="-0.5 -0.5 24 24" id="Expo--Streamline-Svg-Logos.svg" height="24" width="24"><desc>Expo Streamline Icon: https://streamlinehq.com</desc><path fill="#000020" d="M3.172490625 10.377552083333333c0.05062395833333333 -0.07460625 0.10603958333333334 -0.08409375 0.15098541666666668 -0.08409375s0.11983958333333333 0.009487500000000001 0.1704635416666667 0.08409375c0.398978125 0.5479989583333333 1.0575447916666667 1.6396604166666666 1.5433479166666666 2.4449239583333333 0.31680104166666667 0.5251427083333333 0.5601458333333333 0.92848125 0.6100510416666667 0.9798239583333332 0.18742604166666668 0.19269687500000002 0.44442708333333336 0.07259375 0.5937833333333334 -0.145978125 0.14703229166666668 -0.21516979166666667 0.18783333333333335 -0.36625104166666667 0.18783333333333335 -0.5274666666666666 0 -0.10977708333333333 -2.1301354166666666 -4.07143125 -2.3446583333333337 -4.40119375 -0.20630520833333332 -0.3171604166666667 -0.273484375 -0.39727708333333334 -0.6265822916666667 -0.39727708333333334h-0.26423645833333337c-0.35204375000000004 0 -0.40293125 0.08011666666666667 -0.6092364583333334 0.39727708333333334C2.3697307291666667 9.057423958333334 0.23958333333333334 13.019078125 0.23958333333333334 13.128855208333333c0 0.16121562500000003 0.0408178125 0.31229687500000003 0.1878525 0.5274666666666666 0.1493490625 0.218571875 0.4063644791666667 0.338675 0.5937617708333334 0.145978125 0.04992916666666667 -0.051342708333333334 0.2932571875 -0.45468125 0.6100654166666667 -0.9798239583333332 0.4857983333333334 -0.8052635416666667 1.1422494791666666 -1.8969250000000002 1.5412276041666668 -2.4449239583333333Z" stroke-width="1"></path><path fill="#000020" d="M17.299090624999998 10.063194791666666c0.8773302083333334 0 1.5750208333333333 0.7920625 1.5750208333333333 1.77171875 0 0.9796562500000001 -0.697690625 1.7786427083333334 -1.5750208333333333 1.7786427083333334 -0.4697510416666667 0 -0.8358822916666667 -0.19451770833333332 -1.0707458333333333 -0.5488614583333334v1.6049447916666668h-0.9740260416666667V10.132673958333335h0.9740260416666667v0.47940625c0.23486354166666668 -0.35434375 0.6009947916666667 -0.5488854166666667 1.0707458333333333 -0.5488854166666667Zm3.6996937500000002 0c0.9946781250000001 0 1.7615125 0.7642708333333333 1.7615125 1.7786666666666668 0 1.0143718750000001 -0.766834375 1.7716947916666668 -1.7615125 1.7716947916666668 -1.0016979166666666 0 -1.7616083333333334 -0.7573229166666667 -1.7616083333333334 -1.7716947916666668 0 -1.0143958333333334 0.7599104166666667 -1.7786666666666668 1.7616083333333334 -1.7786666666666668Zm-10.12560625 -1.3826354166666668v0.9866041666666668h-1.9411520833333333v0.8754375h1.7270125v0.9866041666666668h-1.7270125v1.0282677083333334h1.9411520833333333v0.9866281250000001H7.909652083333334v-4.863541666666667h2.963526041666667Zm1.5849395833333335 1.4521145833333333 0.559546875 0.8059583333333333 0.566446875 -0.8059583333333333h1.160565625l-1.1467416666666668 1.6466562500000002 1.2296375 1.7647708333333334h-1.174365625l-0.6424666666666667 -0.9240729166666668 -0.6424427083333334 0.9240729166666668h-1.1605416666666668l1.2227135416666668 -1.7578229166666666 -1.1467416666666668 -1.6536041666666668h1.1743895833333333Zm4.619933333333334 0.8615416666666668c-0.476675 0 -0.8497062500000001 0.36823958333333334 -0.8497062500000001 0.8406979166666667 0 0.47940625 0.37303125 0.8406979166666667 0.8497062500000001 0.8406979166666667 0.46972708333333335 0 0.8496822916666666 -0.36823958333333334 0.8496822916666666 -0.8406979166666667 0 -0.4655104166666667 -0.37995520833333335 -0.8406979166666667 -0.8496822916666666 -0.8406979166666667Zm3.920733333333333 0.006947916666666667c-0.46297083333333333 0 -0.8082583333333334 0.35434375 -0.8082583333333334 0.8406979166666667 0 0.47245833333333337 0.3452875 0.83375 0.8082583333333334 0.83375 0.45583125 0 0.8082583333333334 -0.3612916666666667 0.8082583333333334 -0.83375 0 -0.48635416666666664 -0.3524270833333334 -0.8406979166666667 -0.8082583333333334 -0.8406979166666667Z" stroke-width="1"></path></svg>